<svg xmlns="http://www.w3.org/2000/svg" viewBox="0 0 12.7 12.28"><defs><style>.cls-1{fill:none;stroke:#231f20;stroke-miterlimit:10;stroke-width:0.6px;}</style></defs><title>bookmark</title><g id="Layer_2" data-name="Layer 2"><g id="Layer_1-2" data-name="Layer 1"><path class="cls-1" d="M6.57.45,8.09,3.52a1,1,0,0,0,.77.56l3.24.47a.35.35,0,0,1,.19.59L9.87,7.5a.85.85,0,0,0-.24.73l.58,3.39a.31.31,0,0,1-.45.33l-3.43-1.8L3,11.89a.37.37,0,0,1-.54-.39L3,8.17a.71.71,0,0,0-.21-.63L.41,5.18a.38.38,0,0,1,.21-.64l3-.43a1.39,1.39,0,0,0,1.05-.76L6.09.45A.27.27,0,0,1,6.57.45Z"/></g></g></svg>