<svg xmlns="http://www.w3.org/2000/svg" viewBox="0 0 4.85 4.68"><defs><style>.cls-1{fill:#e8782d;}</style></defs><title>checkmark</title><g id="Layer_2" data-name="Layer 2"><g id="Layer_1-2" data-name="Layer 1"><path class="cls-1" d="M0,2.79A.36.36,0,0,1,.13,2.6l.31-.31a.27.27,0,0,1,.4,0l.93.94s0,0,.06,0l2.06-3L4,.1A.26.26,0,0,1,4.29,0l.46.32a.25.25,0,0,1,.07.32c-.11.18-.23.34-.34.51C3.76,2.26,3,3.32,2.31,4.38l0,.06a.45.45,0,0,1-.3.24H1.86a.55.55,0,0,1-.3-.16L.09,3.05A.24.24,0,0,1,0,2.88Z"/></g></g></svg>