<svg xmlns="http://www.w3.org/2000/svg" viewBox="0 0 15.91 15.41"><defs><style>.cls-1{fill:none;stroke:#fff;stroke-miterlimit:10;stroke-width:1.4px;}</style></defs><title>favoriet</title><g id="Layer_2" data-name="Layer 2"><g id="Layer_1-2" data-name="Layer 1"><path class="cls-1" d="M8.22.88,10,4.56a1.24,1.24,0,0,0,.93.68l3.89.56a.41.41,0,0,1,.22.7l-2.9,2.83a1,1,0,0,0-.29.88l.7,4.06a.38.38,0,0,1-.54.4L7.93,12.51,4,14.6a.45.45,0,0,1-.65-.47l.69-4a.89.89,0,0,0-.25-.76L.83,6.55a.45.45,0,0,1,.25-.76l3.59-.52a1.66,1.66,0,0,0,1.26-.91L7.65.88A.32.32,0,0,1,8.22.88Z"/></g></g></svg>