<svg xmlns="http://www.w3.org/2000/svg" viewBox="0 0 15.26 16.19"><defs><style>.cls-1{fill:#fff;stroke:#fff;stroke-miterlimit:10;stroke-width:0.75px;}</style></defs><title>gelezen</title><g id="Layer_2" data-name="Layer 2"><g id="Layer_1-2" data-name="Layer 1"><path class="cls-1" d="M2.41,3.27c0-.83,0-1.62,0-2.42A.43.43,0,0,1,3,.38c.21,0,.42.06.63.11.39.08.78.19,1.17.29a4.13,4.13,0,0,1,2.44,2c.15.21.28.43.43.65L8,3.22a3.49,3.49,0,0,1,2.9-.45c.28.06.57.13.85.22a4.08,4.08,0,0,0,1.39.21c.43,0,.86,0,1.28,0a.45.45,0,0,1,.49.5c0,2.07-.05,4.13-.08,6.2,0,1.59-.05,3.18-.07,4.78,0,.44-.15.56-.59.58a13.26,13.26,0,0,1-3.44-.33,2.92,2.92,0,0,0-2.9.76.44.44,0,0,1-.63,0l0-.05a2.4,2.4,0,0,0-2.82-.71A8.8,8.8,0,0,1,2,15.25c-.4,0-.8,0-1.2,0a.42.42,0,0,1-.45-.48c0-3.67,0-7.34,0-11,0-.36.15-.51.51-.51Zm11.46,11.1L14,4.06h-.25a7.36,7.36,0,0,1-2.87-.38,2.76,2.76,0,0,0-2.78.47l0,0c0,.09-.12.17-.12.25q0,4.94,0,9.87a1.48,1.48,0,0,0,0,.2l.24-.12A2.73,2.73,0,0,1,9.87,14c.6.07,1.2.13,1.79.25A9.07,9.07,0,0,0,13.87,14.37Zm-6.81-.78V4.28A.53.53,0,0,0,7,4c-.27-.42-.54-.84-.82-1.25A4,4,0,0,0,3.26,1.3V11.49A6.25,6.25,0,0,1,7.06,13.59Zm-5.83.79h1a7.27,7.27,0,0,0,1.91-.32,2.2,2.2,0,0,1,.62-.12c.46,0,.92,0,1.41,0-.2-.18-.38-.38-.59-.54A6.41,6.41,0,0,0,2.93,12.3c-.45-.09-.52-.17-.52-.63V4.16H1.23Z"/></g></g></svg>