<svg xmlns="http://www.w3.org/2000/svg" viewBox="0 0 13.59 13.54"><style>.duim { fill: #444; stroke: #333; stroke-miterlimit: 10; stroke-width: 0.2px;}</style><title>like</title><g id="Layer_2" data-name="Layer 2"><g id="Layer_1-2" data-name="Layer 1"><path class="duim" d="M0,7.31a.34.34,0,0,1,.36-.22h3c.25,0,.32.05.36.31a2,2,0,0,0,.42,0,.3.3,0,0,0,.18-.17c.14-.3.27-.61.4-.92s.26-.63.36-.95a3.47,3.47,0,0,1,.78-1.27A7.62,7.62,0,0,1,7,3a1.62,1.62,0,0,0,.6-1.16c.06-.37.1-.74.13-1.12A.63.63,0,0,1,8.05.2,1.23,1.23,0,0,1,9.89.82,3,3,0,0,1,9.82,3.2c-.19.46-.42.9-.62,1.36a3.15,3.15,0,0,0-.14.49h.18c.87,0,1.74,0,2.61,0a2.69,2.69,0,0,1,.74.14,1.23,1.23,0,0,1,.91,1.1,2.61,2.61,0,0,1,.05.48,1,1,0,0,1-.38.75,1.15,1.15,0,0,1,.41,1,1,1,0,0,1-.54.9,1.16,1.16,0,0,1,.23,1,1.1,1.1,0,0,1-.56.86.33.33,0,0,0-.2.35,2.47,2.47,0,0,1,0,.54A1.13,1.13,0,0,1,12,13a2.68,2.68,0,0,1-1.33.48l-.53,0H8.57l-.23,0a17.75,17.75,0,0,1-3-.32c-.5-.1-1-.18-1.51-.26,0,0-.13,0-.14,0s-.21.16-.36.16h-3A.38.38,0,0,1,0,12.93Zm3.72,5.07.13,0c.23,0,.45.09.68.12A25.48,25.48,0,0,0,7.4,13a29.83,29.83,0,0,0,3,0,2.56,2.56,0,0,0,1.18-.34A.75.75,0,0,0,12,12c0-.13,0-.27,0-.4a.65.65,0,0,1,.29-.56,1,1,0,0,0,.2-.13,1,1,0,0,0,.24-.34.76.76,0,0,0-.12-.8.44.44,0,0,1,.11-.69,1.63,1.63,0,0,0,.17-.11.55.55,0,0,0,.15-.2A.74.74,0,0,0,12.82,8a.47.47,0,0,1,0-.8A.46.46,0,0,0,13,6.71a4.59,4.59,0,0,0-.1-.51.63.63,0,0,0-.4-.44,2.75,2.75,0,0,0-1.06-.18H9a.31.31,0,0,1-.36-.26,1.07,1.07,0,0,1,.05-.75c.18-.47.38-.92.6-1.37A2.91,2.91,0,0,0,9.57,2a2,2,0,0,0-.21-1,.69.69,0,0,0-1-.31A.21.21,0,0,0,8.24.8c0,.41-.08.81-.15,1.22a2.06,2.06,0,0,1-.77,1.4,6.64,6.64,0,0,0-1.05,1,3.24,3.24,0,0,0-.64,1c-.14.43-.31.85-.48,1.26s-.28.63-.43.94a.6.6,0,0,1-.59.33c-.14,0-.27,0-.41,0Zm-3.19.2H3.19V7.63H.53Z"/></g></g></svg>