<svg xmlns="http://www.w3.org/2000/svg" viewBox="0 0 15.78 17.55"><defs><style>.cls-1{fill:#fff;}</style></defs><title>Asset 9</title><g id="Layer_2" data-name="Layer 2"><g id="Layer_1-2" data-name="Layer 1"><path class="cls-1" d="M4.47,9.17C2.31,5.63,2.88,2.45,4.75,1a5.42,5.42,0,0,1,6.46.14c2,1.74,2.08,4.61,0,8.16a8.41,8.41,0,0,0,1.12.75c2.19,1,2.95,3,3.37,5.15a2.09,2.09,0,0,1-2.07,2.32q-5.77.06-11.54,0A2.19,2.19,0,0,1,0,14.92c.33-2.18,1.14-4,3.35-5A5.92,5.92,0,0,0,4.47,9.17Zm3.4,6.74h3.8c2.47,0,2.75-.5,1.53-2.73A1.1,1.1,0,0,0,13,12.9C11.81,11.78,10.79,10.3,8.7,11a4,4,0,0,1-2.2-.19A1.41,1.41,0,0,0,4.93,11a3.23,3.23,0,0,1-.92.57,3.86,3.86,0,0,0-2.1,3.08C1.72,15.53,2,16,3,15.92,4.61,15.88,6.24,15.91,7.87,15.91ZM4.9,4.65A5.31,5.31,0,0,0,6.38,8.58c1,1.07,2.15,1.15,3.05-.05a9.54,9.54,0,0,0,1.45-3.19A2.69,2.69,0,0,0,9.79,2.28a3.41,3.41,0,0,0-3.41-.21A2.48,2.48,0,0,0,4.9,4.65Z"/></g></g></svg>