<svg xmlns="http://www.w3.org/2000/svg" viewBox="0 0 50.39 23.07"><defs><style>.cls-1{fill:#675c53;}.cls-2{fill:#fff;}.cls-3{fill:#606161;}</style></defs><title>logo</title><g id="Layer_2" data-name="Layer 2"><g id="Layer_1-2" data-name="Layer 1"><path class="cls-1" d="M9.71,23.07H0V10.93l2,1.34c0-.28.07-.46.08-.64C2.29,7.26,4.43,4,8.41,2.76c3.75-1.18,7-.13,9.69,2.84A43.22,43.22,0,0,0,22,9l.39-.3c-.67-1.32-1.25-2.7-2-4C18.69,2.17,16.09,1,13.36,0h37V5.77H45.92l-1.62,6.8-.23,0-1.7-6.72H38c.93,3.26,1.83,6.45,2.74,9.64.79,2.76.8,2.65,3.67,2.8,1.67.09,2.31-.48,2.75-2.07.94-3.31,2.15-6.55,3.25-9.82v16.7H12.75a2.91,2.91,0,0,1,.55-.23c4.55-.94,7.37-3.77,8.76-8.09.75-2.33.55-2.67-1.9-4.09,0,.36,0,.65,0,.94-.26,4.41-2.46,7.59-6.43,8.77a8.81,8.81,0,0,1-9.84-3.28A28.43,28.43,0,0,0,.51,14l-.36.24c.55,1.17,1,2.38,1.65,3.5C3.55,20.82,6.47,22.19,9.71,23.07ZM31.5,5.8a6.11,6.11,0,0,0-6,5.27,2,2,0,0,0,.5,1.41c1.86,1.69,3.75,3.36,5.73,4.92a2.36,2.36,0,0,0,1.88.26,6,6,0,0,0,4-6.38A6.31,6.31,0,0,0,31.5,5.8Zm-16,.09H13V9.11c0,1.56.05,3.13,0,4.69a1.66,1.66,0,0,1-1.9,1.7,1.69,1.69,0,0,1-1.65-1.81c0-.56,0-1.11,0-1.67q0-3.07,0-6.13H7c0,3-.17,6,.06,8.94.15,1.93,2.4,3.43,4.3,3.33s4-1.73,4.1-3.62C15.59,11.69,15.47,8.82,15.47,5.89Z"/><path class="cls-2" d="M50.39,6.37c-1.1,3.27-2.31,6.51-3.25,9.82-.44,1.59-1.08,2.16-2.75,2.07-2.87-.15-2.88,0-3.67-2.8-.91-3.19-1.81-6.38-2.74-9.64h4.39l1.7,6.72.23,0,1.62-6.8h4.47Z"/><path class="cls-2" d="M9.71,23.07c-3.24-.88-6.16-2.25-7.91-5.32C1.16,16.63.7,15.42.15,14.25L.51,14a28.43,28.43,0,0,1,3.38,3.08,8.81,8.81,0,0,0,9.84,3.28c4-1.18,6.17-4.36,6.43-8.77,0-.29,0-.58,0-.94,2.45,1.42,2.65,1.76,1.9,4.09-1.39,4.32-4.21,7.15-8.76,8.09a2.91,2.91,0,0,0-.55.23Z"/><path class="cls-2" d="M13.36,0c2.73,1,5.33,2.17,7,4.72.79,1.26,1.37,2.64,2,4L22,9A43.22,43.22,0,0,1,18.1,5.6c-2.68-3-5.94-4-9.69-2.84-4,1.25-6.12,4.5-6.29,8.87,0,.18,0,.36-.08.64L0,10.93V9.41A36.3,36.3,0,0,1,2.23,4.7C4,2,6.67.69,9.71,0Z"/><path class="cls-1" d="M5.84,0a6.89,6.89,0,0,0-4.5,2.83A22.26,22.26,0,0,0,0,5.66V0Z"/><path class="cls-2" d="M31.5,5.8a6.31,6.31,0,0,1,6.08,5.48,6,6,0,0,1-4,6.38,2.36,2.36,0,0,1-1.88-.26c-2-1.56-3.87-3.23-5.73-4.92a2,2,0,0,1-.5-1.41A6.11,6.11,0,0,1,31.5,5.8ZM29.45,12c0,1.49.89,2.75,2,2.81s2.22-1.36,2.22-2.81a2.5,2.5,0,0,0-2.15-2.67C30.37,9.27,29.46,10.44,29.45,12Z"/><path class="cls-2" d="M15.47,5.89c0,2.93.12,5.8,0,8.65-.11,1.89-2.16,3.52-4.1,3.62S7.18,16.76,7,14.83C6.8,11.89,7,8.93,7,5.89H9.4Q9.4,9,9.41,12c0,.56,0,1.11,0,1.67a1.69,1.69,0,0,0,1.65,1.81A1.66,1.66,0,0,0,13,13.8c.1-1.56,0-3.13,0-4.69V5.89Z"/><path class="cls-3" d="M29.45,12c0-1.54.92-2.71,2.08-2.67A2.5,2.5,0,0,1,33.68,12c0,1.45-1.12,2.88-2.22,2.81S29.43,13.47,29.45,12Z"/></g></g></svg>