<svg xmlns="http://www.w3.org/2000/svg" viewBox="0 0 10.22 14.71"><defs><style>.cls-1{fill:#8d9092;}.cls-2{fill:#fff;}</style></defs><title>password</title><g id="Layer_2" data-name="Layer 2"><g id="Layer_1-2" data-name="Layer 1"><path class="cls-1" d="M5.08,14.71H1.41A1.28,1.28,0,0,1,0,13.3V7.19A1.28,1.28,0,0,1,1.13,5.77c.17,0,.14-.11.14-.21,0-.73-.05-1.46,0-2.18a3.83,3.83,0,0,1,7.63.31C9,4.3,9,4.92,9,5.53c0,.15,0,.22.2.25A1.28,1.28,0,0,1,10.22,7.1v6.26a1.27,1.27,0,0,1-1.35,1.35Z"/><path class="cls-2" d="M5.11,13.44H1.55c-.2,0-.29,0-.28-.27q0-2.92,0-5.85c0-.23.06-.28.28-.28H8.67c.21,0,.29,0,.28.28q0,2.92,0,5.85c0,.24-.07.27-.28.27Z"/><path class="cls-2" d="M5.1,5.76c-.76,0-1.52,0-2.29,0-.22,0-.26-.07-.26-.28,0-.63,0-1.26,0-1.89A2.37,2.37,0,0,1,4.17,1.48a2.43,2.43,0,0,1,2.55.39,2.48,2.48,0,0,1,.94,2c0,.56,0,1.13,0,1.69,0,.17-.06.2-.22.2Z"/><path class="cls-1" d="M5,8.33a1.32,1.32,0,0,1,1.34.82,1.26,1.26,0,0,1-.41,1.44.3.3,0,0,0-.15.3,4.85,4.85,0,0,1,0,.66.62.62,0,0,1-.64.6.65.65,0,0,1-.63-.6v-.2a1,1,0,0,0-.33-.95A1.11,1.11,0,0,1,4,9.05,1.17,1.17,0,0,1,5,8.33Z"/></g></g></svg>